<svg version="1.1" xmlns="http://www.w3.org/2000/svg" width="512px" height="512px" transform="rotate(0) scale(1, 1)">
<path d="M0 0 C5.61 0 11.22 0 17 0 C17.20625 2.0625 17.4125 4.125 17.625 6.25 C19.12949419 16.58294966 22.704139 25.09845575 31.03125 31.6640625 C33.60972028 33.41373876 36.13265679 34.78137914 39 36 C38.66226562 35.2265625 38.32453125 34.453125 37.9765625 33.65625 C32.79554183 21.55721907 31.78312921 13.0122472 32 0 C37.28 0 42.56 0 48 0 C48.25523437 1.77503906 48.25523437 1.77503906 48.515625 3.5859375 C51.01329806 20.20601687 55.31158371 31.79210345 68.37890625 43.0703125 C73.24727308 46.65447526 78.58929508 49.3239172 84 52 C85.30020011 50.61211198 86.5898193 49.21430742 87.875 47.8125 C88.59429687 47.03519531 89.31359375 46.25789063 90.0546875 45.45703125 C93.20862261 41.47344654 94.22248927 37.71102386 94.6328125 32.69921875 C94.71660156 31.72275391 94.80039062 30.74628906 94.88671875 29.74023438 C94.96535156 28.73283203 95.04398437 27.72542969 95.125 26.6875 C95.25455078 25.14739258 95.25455078 25.14739258 95.38671875 23.57617188 C95.59809887 21.05135373 95.79998322 18.52574376 96 16 C101.28 16 106.56 16 112 16 C112.10905921 19.77163112 112.18782871 23.540035 112.25 27.3125 C112.28351563 28.36501953 112.31703125 29.41753906 112.3515625 30.50195312 C112.5255065 44.63490296 106.64016292 54.3115226 98 65 C98.44730469 65.65484375 98.89460938 66.3096875 99.35546875 66.984375 C107.02942333 78.56893757 112.15959822 90.01339201 112 104 C115.45900478 103.8904307 118.91689109 103.75973152 122.375 103.625 C123.35984375 103.5940625 124.3446875 103.563125 125.359375 103.53125 C126.30039062 103.49257812 127.24140625 103.45390625 128.2109375 103.4140625 C129.08024902 103.3826416 129.94956055 103.3512207 130.84521484 103.31884766 C133.20961794 103.18770567 133.20961794 103.18770567 135 101 C135.59778015 98.62663525 136.12428192 96.26857347 136.625 93.875 C139.10254615 82.98798278 144.18357137 73.47661113 150 64 C149.48050781 63.47792969 148.96101563 62.95585938 148.42578125 62.41796875 C140.85230154 54.42451789 135.84292194 45.53067591 135.90234375 34.359375 C135.90556641 33.28945313 135.90878906 32.21953125 135.91210938 31.1171875 C135.92048828 30.00601563 135.92886719 28.89484375 135.9375 27.75 C135.94201172 26.62335937 135.94652344 25.49671875 135.95117188 24.3359375 C135.96294589 21.55726894 135.980881 18.77862773 136 16 C141.28 16 146.56 16 152 16 C152.09796875 17.4953125 152.1959375 18.990625 152.296875 20.53125 C152.44703726 22.5208999 152.59812823 24.51047986 152.75 26.5 C152.8428125 27.97339844 152.8428125 27.97339844 152.9375 29.4765625 C153.52126582 36.77363525 154.88145964 42.60256579 159.921875 48.09375 C160.52515625 48.5578125 161.1284375 49.021875 161.75 49.5 C162.36359375 49.9846875 162.9771875 50.469375 163.609375 50.96875 C164.06828125 51.3090625 164.5271875 51.649375 165 52 C180.32687715 43.45814356 191.69512088 34.59783592 197.15234375 17.3203125 C198.61212029 11.60229378 199.29731836 5.85568032 200 0 C205.28 0 210.56 0 216 0 C216.46912076 13.36994158 215.3421204 23.89727167 209 36 C218.02981152 31.74104128 224.38899454 26.014376 228.22265625 16.65234375 C229.81819003 11.20828628 230.34492441 5.62273217 231 0 C236.61 0 242.22 0 248 0 C248.75916679 15.5629191 244.49873547 28.06811926 234.8125 40.1875 C225.44156961 50.38224845 213.30071228 54.75459267 199.875 55.875 C192.31265916 56.53293139 187.92436875 58.1375464 182 63 C180.15580044 64.14126553 178.3010015 65.26553112 176.4375 66.375 C169.29736907 70.93231821 164.05637475 75.9275281 159.76953125 83.26171875 C159.24593018 84.15205811 158.7223291 85.04239746 158.18286133 85.9597168 C157.79251709 86.63301025 157.40217285 87.30630371 157 88 C157.57993713 87.99111755 158.15987427 87.98223511 158.75738525 87.9730835 C164.79176988 87.88460971 170.82597038 87.82426578 176.86083984 87.78027344 C179.11319461 87.76015444 181.36549713 87.73285592 183.61767578 87.69824219 C186.85462331 87.64973791 190.09088047 87.62703395 193.328125 87.609375 C194.33554749 87.58872986 195.34296997 87.56808472 196.38092041 87.54681396 C203.33381293 87.54458085 203.33381293 87.54458085 206.63525391 89.80151367 C208.74199286 93.19528546 208.64796485 96.19300649 208 100 C206.88007003 103.76201827 205.4156548 107.33029381 203.875 110.9375 C203.49601562 111.87529297 203.11703125 112.81308594 202.7265625 113.77929688 C199.29432399 122.0109489 195.234037 129.62727435 188.3125 135.4375 C187.56613281 136.07558594 186.81976563 136.71367187 186.05078125 137.37109375 C184 139 184 139 181 141 C182.01320313 142.14275391 182.01320313 142.14275391 183.046875 143.30859375 C191.51824183 153.02519138 195.8299482 159.91443374 195.453125 173.33203125 C194.50629627 180.99644656 190.99382979 187.12130133 185 192 C176.1543076 198.20967607 168.15062784 199.26338616 157.43896484 197.60302734 C151.59670323 196.54202849 145.79221161 195.30509157 140 194 C139.77736481 194.81215469 139.55472961 195.62430939 139.3253479 196.46107483 C137.66197373 200.90259295 135.31442619 204.62160816 132.79443359 208.62280273 C124.94556486 221.35064817 117.53881988 234.31436225 110.375 247.4375 C109.87878348 248.34493989 109.87878348 248.34493989 109.37254238 249.2707119 C82.81447033 297.97616837 73.83355274 345.27094239 69.625 400.25 C69.5564125 401.14591905 69.48782499 402.0418381 69.41715908 402.96490622 C68.2035454 418.96159942 67.09306166 434.9659794 66.32403564 450.99067688 C66.25118953 452.45329042 66.1782976 453.91590168 66.10535622 455.37851048 C65.97215498 458.06239389 65.85820451 460.74476715 65.75504112 463.43021297 C65.69880388 464.61132436 65.64256664 465.79243574 65.58462524 467.00933838 C65.54343378 468.02826298 65.50224232 469.04718758 65.45980263 470.09698868 C64.91538982 473.53419507 63.76491417 476.01331216 62 479 C58.65126458 480.67436771 54.87967138 480.20634047 51.1953125 480.23828125 C50.31978729 480.246353 49.44426208 480.25442474 48.54220581 480.26274109 C46.68782533 480.27658221 44.83341937 480.28730424 42.97900391 480.29516602 C40.14306434 480.31239029 37.30828714 480.35627643 34.47265625 480.40039062 C32.67188358 480.41051655 30.87110099 480.41903297 29.0703125 480.42578125 C28.22228058 480.44328934 27.37424866 480.46079742 26.5005188 480.47883606 C25.70644623 480.47591049 24.91237366 480.47298492 24.09423828 480.4699707 C23.39855743 480.47583694 22.70287659 480.48170319 21.9861145 480.48774719 C19.03739259 479.76360423 17.84230461 478.3682415 16 476 C15.48101807 473.62078857 15.48101807 473.62078857 15.45410156 470.95605469 C15.43438293 469.95531921 15.41466431 468.95458374 15.39434814 467.92352295 C15.39250519 466.31395721 15.39250519 466.31395721 15.390625 464.671875 C15.37408875 463.56773254 15.35755249 462.46359009 15.34051514 461.32598877 C15.29194374 457.80060311 15.2706431 454.27564911 15.25 450.75 C15.2218481 448.35935318 15.19192178 445.96872654 15.16015625 443.578125 C15.08618231 437.7188286 15.03459335 431.85965406 15 426 C14.49138428 427.10811035 13.98276855 428.2162207 13.45874023 429.35791016 C11.53955228 433.53754624 9.61725223 437.71574515 7.6940918 441.89355469 C6.86806988 443.68907308 6.04285062 445.48496099 5.21850586 447.28125 C1.23471044 455.96083831 -2.75378232 464.63866312 -6.96484375 473.2109375 C-7.50616943 474.3148584 -8.04749512 475.4187793 -8.60522461 476.55615234 C-10 479 -10 479 -12 480 C-14.94269525 480.1358023 -17.86053126 480.2127575 -20.8046875 480.23828125 C-21.68021271 480.246353 -22.55573792 480.25442474 -23.45779419 480.26274109 C-25.31217467 480.27658221 -27.16658063 480.28730424 -29.02099609 480.29516602 C-31.85693566 480.31239029 -34.69171286 480.35627643 -37.52734375 480.40039062 C-39.32811642 480.41051655 -41.12889901 480.41903297 -42.9296875 480.42578125 C-43.77771942 480.44328934 -44.62575134 480.46079742 -45.4994812 480.47883606 C-49.1159622 480.46551201 -51.38802696 480.34905862 -54.56689453 478.53588867 C-56.96145482 474.29869996 -56.58562121 469.53046547 -55.50200272 464.84815693 C-54.79250416 462.63389276 -54.00197518 460.46935572 -53.17016602 458.2980957 C-52.86947677 457.47547902 -52.56878752 456.65286234 -52.25898647 455.80531788 C-51.60807754 454.024845 -50.95151884 452.24642937 -50.28988647 450.46991348 C-48.49123361 445.61878425 -46.76054424 440.74339449 -45.02368164 435.86987305 C-44.6593358 434.8494265 -44.29498997 433.82897995 -43.91960335 432.77761078 C-29.87725741 393.36709187 -21.13416016 362.2399872 -24 320 C-43.14 320 -62.28 320 -82 320 C-82.99 323.3 -83.98 326.6 -85 330 C-85.61823056 331.70885207 -86.2606387 333.40961513 -86.94873047 335.09155273 C-87.29853973 335.95622665 -87.648349 336.82090057 -88.00875854 337.71177673 C-88.3745401 338.60997635 -88.74032166 339.50817596 -89.1171875 340.43359375 C-89.89752778 342.40102149 -90.67612177 344.36914259 -91.453125 346.33789062 C-92.66235429 349.3966017 -93.88019849 352.45017917 -95.12792969 355.4934082 C-96.34151478 358.46257945 -97.51358245 361.44551033 -98.6796875 364.43359375 C-99.24657791 365.77785683 -99.24657791 365.77785683 -99.82492065 367.14927673 C-102.58886286 374.39813724 -101.59400546 378.84732365 -99 386 C-98.55277276 387.3401079 -98.11000895 388.68171038 -97.67077637 390.02445984 C-96.3682673 393.98861495 -95.02985957 397.93969806 -93.68251991 401.88881302 C-92.78303411 404.52864728 -91.88942484 407.17040258 -90.99760437 409.81283569 C-88.46461842 417.31784148 -85.92913695 424.82193387 -83.37084961 432.31835938 C-81.79949532 436.92421417 -80.24151663 441.53440798 -78.69209862 446.147686 C-78.102567 447.89473482 -77.50814007 449.64014012 -76.90859413 451.38377762 C-76.07004974 453.82421055 -75.24872455 456.26984128 -74.4309082 458.71728516 C-74.1831514 459.425056 -73.93539459 460.13282684 -73.68013 460.86204529 C-72.02747595 465.89032441 -71.37924529 470.71011282 -72 476 C-73.4375 478.52929688 -73.4375 478.52929688 -76 480 C-79.00841842 480.55900721 -81.94668176 480.56062007 -85 480.53125 C-85.87269531 480.5350769 -86.74539062 480.53890381 -87.64453125 480.54284668 C-89.48699092 480.5455649 -91.32948924 480.53820994 -93.171875 480.52148438 C-95.99045934 480.50007248 -98.80649485 480.52128801 -101.625 480.546875 C-103.41667229 480.54423171 -105.20834299 480.53910669 -107 480.53125 C-107.84175781 480.53934692 -108.68351562 480.54744385 -109.55078125 480.55578613 C-115.32574337 480.46333712 -115.32574337 480.46333712 -118.35229492 478.38354492 C-120.36505349 475.47191922 -121.8719286 472.54532679 -123.36328125 469.33203125 C-123.67210739 468.67248444 -123.98093353 468.01293762 -124.29911804 467.33340454 C-125.31219868 465.16366424 -126.31245887 462.98827719 -127.3125 460.8125 C-128.01956011 459.29080775 -128.72725195 457.76940889 -129.43554688 456.24829102 C-134.99121365 444.29095853 -140.4524445 432.2893312 -145.88232422 420.27441406 C-149.47719253 412.32210782 -153.10833557 404.39026937 -156.91992188 396.53881836 C-159 392.2086785 -159 392.2086785 -159 390 C-163.22104999 392.72190685 -163.22104999 392.72190685 -167 396 C-167.19640322 398.53799277 -167.26962521 400.96831629 -167.25537109 403.50732422 C-167.25899155 404.28147675 -167.262612 405.05562927 -167.26634216 405.85324097 C-167.27324445 407.53710627 -167.27574005 409.22099398 -167.27439499 410.90487289 C-167.27343216 413.56947792 -167.28634295 416.23367685 -167.30337524 418.89822388 C-167.34972148 426.47492306 -167.37425626 434.051582 -167.38085938 441.62841797 C-167.38587014 446.26040292 -167.41009948 450.89196552 -167.44618607 455.52380753 C-167.45599609 457.29002473 -167.45830946 459.05629996 -167.45301437 460.82253647 C-167.44595504 463.29344639 -167.46320183 465.76309594 -167.48583984 468.23388672 C-167.47358116 469.32969055 -167.47358116 469.32969055 -167.46107483 470.44763184 C-167.5159142 473.80959319 -167.78298067 475.70062588 -169.77822876 478.45303345 C-172.15467843 480.10769892 -173.21141734 480.50442184 -176.0625 480.51757812 C-176.85011719 480.53018677 -177.63773438 480.54279541 -178.44921875 480.55578613 C-179.71185547 480.54364075 -179.71185547 480.54364075 -181 480.53125 C-181.87269531 480.5350769 -182.74539062 480.53890381 -183.64453125 480.54284668 C-185.48699092 480.5455649 -187.32948924 480.53820994 -189.171875 480.52148438 C-191.99045934 480.50007248 -194.80649485 480.52128801 -197.625 480.546875 C-199.41667229 480.54423171 -201.20834299 480.53910669 -203 480.53125 C-203.84175781 480.53934692 -204.68351562 480.54744385 -205.55078125 480.55578613 C-206.33839844 480.54317749 -207.12601563 480.53056885 -207.9375 480.51757812 C-208.62714844 480.51439575 -209.31679687 480.51121338 -210.02734375 480.50793457 C-213.14028002 479.70639201 -214.15713486 478.65231255 -216 476 C-216.64197248 472.77569899 -216.64936572 469.58066726 -216.67626953 466.30053711 C-216.69934174 465.31610123 -216.72241394 464.33166534 -216.7461853 463.31739807 C-216.81489148 460.05398168 -216.85184084 456.79132553 -216.8828125 453.52734375 C-216.90352121 451.84733874 -216.90352121 451.84733874 -216.92464828 450.13339424 C-216.99639699 444.19170694 -217.04341402 438.25040041 -217.07080078 432.30834961 C-217.10369652 426.21446415 -217.22019788 420.12530491 -217.35708809 414.03299618 C-217.44740898 409.31317855 -217.47384502 404.59444945 -217.48403549 399.87384224 C-217.49967698 397.6312638 -217.53851821 395.38870663 -217.60248184 393.14698601 C-218.0408613 376.68028847 -214.67751562 367.18793929 -203.6477356 354.86043644 C-201.461432 352.39191001 -199.51475098 349.79897214 -197.5546875 347.1484375 C-196.32903254 345.55659248 -195.10249841 343.96542393 -193.875 342.375 C-187.00231135 333.41776424 -180.423971 324.28312475 -174 315 C-174.74378906 314.73574219 -175.48757812 314.47148437 -176.25390625 314.19921875 C-186.5695836 309.69436392 -193.79798973 299.02752451 -198 289 C-200.46680899 282.26990155 -200.58908407 275.09370654 -201 268 C-202.03833984 268.433125 -202.03833984 268.433125 -203.09765625 268.875 C-211.28347032 271.98107965 -219.28346022 273.424819 -228 272 C-230.54563541 269.99276941 -231.83403324 268.79043114 -232.50793457 265.58091736 C-232.51111694 264.68143875 -232.51429932 263.78196014 -232.51757812 262.85522461 C-232.53018677 261.82993149 -232.54279541 260.80463837 -232.55578613 259.74827576 C-232.54768921 258.64411819 -232.53959229 257.53996063 -232.53125 256.40234375 C-232.5350769 255.25770157 -232.53890381 254.11305939 -232.54284668 252.93373108 C-232.54556937 250.50862755 -232.53818337 248.08349483 -232.52148438 245.65844727 C-232.50021879 241.9753925 -232.5212044 238.29431935 -232.546875 234.61132812 C-232.5442291 232.24999574 -232.53909873 229.88866457 -232.53125 227.52734375 C-232.53934692 226.4373558 -232.54744385 225.34736786 -232.55578613 224.22434998 C-232.41679639 212.67893135 -229.01543425 203.39636578 -221 195 C-210.93142574 185.38822306 -200.37845593 183.45654259 -186.8125 183.5 C-176.46800828 183.70572391 -176.46800828 183.70572391 -167.01413822 180.11514378 C-157.51417022 174.85541032 -147.01006826 175.63399368 -136.50610352 175.75805664 C-134.64073452 175.76869956 -132.77535641 175.77783441 -130.90997314 175.7855835 C-126.90872438 175.80428466 -122.90765163 175.83137004 -118.90649605 175.86439705 C-112.5723441 175.91437677 -106.23836322 175.93165317 -99.90403748 175.94200134 C-97.73049634 175.94595127 -95.55695527 175.94993888 -93.38341427 175.95396328 C-91.75135015 175.95697124 -91.75135015 175.95697124 -90.08631504 175.96003997 C-75.35205771 175.99000345 -60.61833162 176.04788256 -45.88452148 176.16772461 C-35.92737586 176.24845156 -25.97104417 176.28635602 -16.01356453 176.27608389 C-10.75145042 176.27247333 -5.49147383 176.29086439 -0.22979927 176.36226082 C4.71971665 176.42926249 9.66623325 176.44007982 14.61607361 176.40881348 C16.42569359 176.40729313 18.23547039 176.42612021 20.04461861 176.46746635 C30.46753089 176.89402763 30.46753089 176.89402763 39.46519661 172.37927055 C42.3251984 169.4825256 44.65310545 166.31980991 47 163 C48.19068234 161.60968708 49.39457333 160.23026553 50.625 158.875 C51.15609375 158.26140625 51.6871875 157.6478125 52.234375 157.015625 C55.16747614 153.6672175 58.17784379 150.38832697 61.1796875 147.1015625 C63.03676667 145.13276579 63.03676667 145.13276579 64 143 C63.31035156 142.67128906 62.62070312 142.34257812 61.91015625 142.00390625 C48.54452169 135.23858505 42.50554658 126.4860003 37 113 C36.49082031 111.82050781 35.98164063 110.64101562 35.45703125 109.42578125 C32.98398848 103.46138397 30.94113076 98.4708676 32 92 C33.38793945 89.81616211 33.38793945 89.81616211 36 88 C39.45000381 87.40591912 42.86227662 87.46382977 46.35546875 87.50390625 C47.87978264 87.5017234 47.87978264 87.5017234 49.43489075 87.49949646 C51.58593611 87.501156 53.73699328 87.51272338 55.88793945 87.53344727 C59.15823729 87.56224234 62.4268972 87.55408822 65.69726562 87.54101562 C67.79167446 87.54725838 69.88607821 87.5556535 71.98046875 87.56640625 C73.43407051 87.56200279 73.43407051 87.56200279 74.91703796 87.55751038 C81.11777457 87.64232007 86.24917648 88.66887302 92 91 C85.47255706 75.58342622 73.97309802 67.35559853 59.93359375 59.1640625 C58 58 58 58 57 57 C55.05871182 56.80502346 53.11667558 56.61565263 51.17211914 56.45654297 C34.96437868 55.07444959 21.47069015 49.87965413 10.625 37.25 C6.62813568 31.92630777 4.15653396 26.26879103 2 20 C1.63068359 18.95199219 1.63068359 18.95199219 1.25390625 17.8828125 C-0.5133026 12.00836654 -0.13829354 6.08491571 0 0 Z M53 104 C54.09808946 110.61215159 56.76463398 117.45888705 61.9375 121.9375 C68.49795585 126.35576618 73.66201681 127.55916363 81.34179688 128.171875 C86.53912757 128.68036267 86.53912757 128.68036267 88.9375 130.34375 C90.4393201 132.6848225 90.83342077 134.86772798 90.7421875 137.625 C89.02633184 143.1157381 83.96685861 147.02730777 80 151 C78.79853906 152.34179552 77.60917834 153.69462081 76.4375 155.0625 C73.82298058 158.07073528 71.17048344 161.04130249 68.5 164 C65.81016569 166.98062721 63.13689636 169.97245233 60.5 173 C56.38840077 177.71540051 52.23605485 182.39593299 48 187 C47.45187401 187.69694662 46.90374802 188.39389324 46.33901215 189.11195946 C43.15299002 191.68370281 40.38349329 191.55579688 36.46252441 191.50552368 C35.31853628 191.51465886 35.31853628 191.51465886 34.15143728 191.52397859 C31.59348749 191.53960579 29.03647046 191.52677944 26.47851562 191.51416016 C24.64519664 191.51961997 22.81188222 191.52686081 20.97857666 191.53575134 C17.02798208 191.55110596 13.07764729 191.55388296 9.12702942 191.54698563 C2.87279102 191.53620463 -3.38117597 191.55357741 -9.63537598 191.57479858 C-19.53743046 191.60508659 -29.43940476 191.61675511 -39.34150171 191.62037504 C-57.04618401 191.62701049 -74.7508097 191.65616345 -92.45542383 191.7054714 C-98.66407575 191.72191348 -104.87261105 191.72739665 -111.08128262 191.72388101 C-114.95834384 191.72344167 -118.83536168 191.73104309 -122.71240997 191.74055672 C-124.50053481 191.74322304 -126.28866862 191.74251606 -128.07678986 191.73804665 C-145.16736595 191.69830988 -159.85739972 192.46966257 -172.95703125 204.7578125 C-182.43251877 215.15729594 -184.14859065 227.39066219 -184.16796875 240.92578125 C-184.17129715 241.75401901 -184.17462555 242.58225677 -184.17805481 243.43559265 C-184.18308692 245.17767792 -184.18546429 246.91977271 -184.18530273 248.66186523 C-184.18748543 251.29492456 -184.20567057 253.92756162 -184.22460938 256.56054688 C-184.27334224 270.91025214 -183.92798747 284.16487749 -173.828125 295.3359375 C-169.0941305 299.64508634 -163.43181589 302.59764241 -157.4375 304.75 C-154 306 -154 306 -153 308 C-152.22702333 314.32874649 -153.34135636 317.3564979 -157.1640625 322.390625 C-157.76992187 323.14859375 -158.37578125 323.9065625 -159 324.6875 C-159.62648437 325.50347656 -160.25296875 326.31945312 -160.8984375 327.16015625 C-162.23425273 328.89724404 -163.57824214 330.62807177 -164.9296875 332.35302734 C-167.65209166 335.8337238 -170.32534446 339.35065898 -172.99926758 342.86865234 C-174.33255135 344.62217674 -175.66832678 346.37380942 -177.0065918 348.12353516 C-183.32094448 356.38224409 -189.49220521 364.74324785 -195.62817383 373.13500977 C-197 375 -197 375 -198.56445312 376.60050964 C-200.62996667 380.05297778 -200.39454407 383.35187322 -200.34057617 387.25683594 C-200.34101425 388.08647354 -200.34145233 388.91611115 -200.34190369 389.77088928 C-200.3398162 392.50895851 -200.31648719 395.24641294 -200.29296875 397.984375 C-200.28737265 399.88437567 -200.28310262 401.78438066 -200.28010559 403.68438721 C-200.26865793 408.68218971 -200.23919135 413.67973015 -200.20599365 418.6774292 C-200.17529112 423.77840632 -200.16159986 428.87942584 -200.14648438 433.98046875 C-200.11432158 443.98711276 -200.06155422 453.99349358 -200 464 C-194.72 464 -189.44 464 -184 464 C-183.99589111 461.72391846 -183.99178223 459.44783691 -183.98754883 457.1027832 C-183.97034406 449.57885679 -183.92583041 442.05526996 -183.86790943 434.53155231 C-183.83363234 429.97026824 -183.80852836 425.40931935 -183.80444336 420.84790039 C-183.8001619 416.44500911 -183.77171246 412.04287403 -183.72656822 407.64021873 C-183.71358824 405.96137078 -183.70928734 404.28243236 -183.71384621 402.60354042 C-183.71874902 400.24959505 -183.69267876 397.8978626 -183.65942383 395.54418945 C-183.66804947 394.8515097 -183.67667511 394.15882996 -183.68556213 393.44515991 C-183.59523725 389.62625614 -183.10107507 388.11906518 -180.59477234 385.16667175 C-179.73849747 384.45167007 -178.8822226 383.7366684 -178 383 C-177.28199219 382.27039063 -176.56398438 381.54078125 -175.82421875 380.7890625 C-171.77503288 376.6880589 -167.6608312 372.75735707 -163.2890625 369.00390625 C-160.35037429 366.43130036 -157.48863478 363.78057349 -154.625 361.125 C-149.96078625 356.80229839 -145.2630561 352.52183148 -140.52734375 348.27734375 C-137.66917797 345.70190225 -134.83289739 343.10314236 -132 340.5 C-127.54938022 336.41079455 -123.06921883 332.35630885 -118.5703125 328.3203125 C-114.216362 324.38984655 -109.88095083 320.43394345 -105.60995483 316.41343689 C-104 315 -104 315 -101.97915649 313.56031799 C-97.67470414 310.34691309 -97.67470414 310.34691309 -95.29684448 305.67712402 C-95.07669208 302.98129738 -95.09830671 300.39346334 -95.21875 297.69140625 C-95.23006958 296.72468491 -95.24138916 295.75796356 -95.25305176 294.76194763 C-95.29761191 291.69339437 -95.39793101 288.62962487 -95.5 285.5625 C-95.54015355 283.47467717 -95.57665104 281.38678062 -95.609375 279.29882812 C-95.6972804 274.1973934 -95.83518286 269.0995058 -96 264 C-90.72 264 -85.44 264 -80 264 C-80 277.2 -80 290.4 -80 304 C-48.32 304 -16.64 304 16 304 C16 290.8 16 277.6 16 264 C21.28 264 26.56 264 32 264 C32 330 32 396 32 464 C37.28 464 42.56 464 48 464 C49.46215495 455.02129691 50.55116598 446.09830843 51.33764648 437.03759766 C51.45755119 435.69366306 51.57794275 434.34977182 51.69877625 433.00592041 C51.89060086 430.87144188 52.08207401 428.73693694 52.27204216 426.6022923 C52.74345301 421.30649262 53.22997316 416.0122288 53.72511292 410.71859741 C53.79761951 409.94327813 53.87012611 409.16795884 53.94482988 408.36914504 C54.24356208 405.17791381 54.54279202 401.98672948 54.84228599 398.79556966 C55.68492776 389.8108615 56.51340571 380.82537808 57.29858398 371.83544922 C57.92594158 364.65365037 58.58515769 357.47553783 59.27990586 350.29993474 C59.64452727 346.52215484 59.99443391 342.74448179 60.30535698 338.9618721 C61.7678701 321.31420676 64.66421757 306.49535212 73.43458366 290.84714127 C76.23101699 285.76105615 78.71781725 280.52067413 81.26586914 275.30712891 C82.36850032 273.08648589 83.47344358 270.86698955 84.58058167 268.64859009 C85.14392275 267.51953876 85.70726383 266.39048744 86.28767586 265.22722244 C86.86434439 264.07200466 87.44101292 262.91678688 88.03515625 261.7265625 C88.63540837 260.52331027 89.23561674 259.32003623 89.835783 258.11674118 C92.64353656 252.48770678 95.45279874 246.85942943 98.26439577 241.23231375 C101.48972021 234.77713618 104.70970847 228.31933185 107.92538172 221.85934126 C110.43349871 216.82155001 112.94617702 211.78605117 115.46238416 206.75229585 C116.95748407 203.76104928 118.4500376 200.76860079 119.93898201 197.77428055 C121.58661595 194.46208461 123.241664 191.15370047 124.89868164 187.84619141 C125.38850021 186.85733948 125.87831879 185.86848755 126.38298035 184.84967041 C127.05742691 183.50913101 127.05742691 183.50913101 127.74549866 182.14151001 C128.13495698 181.3611268 128.5244153 180.5807436 128.92567539 179.77671242 C130 178 130 178 132 177 C138.94316942 176.42460846 145.3814651 177.45742942 152.125 179 C162.54428032 181.61308899 162.54428032 181.61308899 172.8125 179.75 C176.50598202 176.79521438 178.19797834 174.70187159 178.75 169.9375 C178.49567336 163.68106477 174.51592528 159.9987766 170.44628906 155.58349609 C168.35594295 153.29484233 166.34504298 150.94024371 164.32470703 148.58984375 C162.6765807 146.67481238 161.01929658 144.7680934 159.359375 142.86328125 C156.03697102 139.0467712 152.73276587 135.21495484 149.4375 131.375 C148.94918701 130.80740967 148.46087402 130.23981934 147.95776367 129.6550293 C145.92100906 127.27994099 144.02720647 125.04598152 142.42993164 122.34643555 C139.28979484 119.31419856 137.48062888 119.41809822 133.24584961 119.38365173 C131.91759155 119.40837303 131.91759155 119.40837303 130.5625 119.43359375 C129.1868689 119.42514183 129.1868689 119.42514183 127.78344727 119.41651917 C124.85511163 119.40005927 121.92828346 119.41562202 119 119.4375 C116.0718579 119.454088 113.14470997 119.46320035 110.21655273 119.44776917 C108.39574885 119.43848159 106.57473536 119.44767912 104.75415039 119.47740173 C98.60016482 119.45078169 98.60016482 119.45078169 95.55078125 117.16040039 C95.03902344 116.44746826 94.52726562 115.73453613 94 115 C89.56591525 109.087887 85.30294484 105.84199937 77.92578125 104.3984375 C72.95460011 103.89389971 68.05485056 103.89313872 63.0625 103.9375 C61.6074707 103.94426758 61.6074707 103.94426758 60.12304688 103.95117188 C57.7486324 103.9628685 55.37434979 103.97925914 53 104 Z M153 108 C154.35153828 110.95399506 155.8967985 113.23557476 158.0390625 115.671875 C158.61914062 116.33574219 159.19921875 116.99960938 159.796875 117.68359375 C160.40015625 118.36550781 161.0034375 119.04742187 161.625 119.75 C162.23601562 120.44738281 162.84703125 121.14476562 163.4765625 121.86328125 C164.98063803 123.5788674 166.48852498 125.29093409 168 127 C169.43484103 126.40900511 170.86492795 125.80646107 172.29296875 125.19921875 C173.48829224 124.69781372 173.48829224 124.69781372 174.70776367 124.1862793 C181.28558264 120.78212312 184.75880974 113.8026716 187 107 C187 106.01 187 105.02 187 104 C183.68757688 103.9411004 180.37529149 103.90610602 177.0625 103.875 C176.13630859 103.85824219 175.21011719 103.84148437 174.25585938 103.82421875 C166.67339138 103.77100845 159.77241407 104.39271668 153 108 Z M-209.875 208.9375 C-215.41932157 215.75449538 -216.13458225 222.50775305 -216.09765625 231.1484375 C-216.0962413 231.80582916 -216.09482635 232.46322083 -216.09336853 233.14053345 C-216.08781762 235.21873731 -216.07527465 237.29682927 -216.0625 239.375 C-216.05747864 240.79296718 -216.05291685 242.21093607 -216.04882812 243.62890625 C-216.03786437 247.08597322 -216.02063421 250.54297567 -216 254 C-212.2431011 253.41695547 -209.13112654 252.82627664 -205.75 251.0625 C-205.08484375 250.72347656 -204.4196875 250.38445312 -203.734375 250.03515625 C-201.83324804 248.99643962 -201.83324804 248.99643962 -200 247 C-199.71052205 244.52811167 -199.71052205 244.52811167 -199.76171875 241.64453125 C-199.74890869 240.55358154 -199.73609863 239.46263184 -199.72290039 238.33862305 C-199.71121826 237.17500244 -199.69953613 236.01138184 -199.6875 234.8125 C-199.44932185 224.23492888 -198.25625719 215.69259815 -194 206 C-193.33061409 204.33442361 -192.66294359 202.66815108 -192 201 C-199.62970526 200.23702947 -204.87063324 203.43373697 -209.875 208.9375 Z M-8 320 C-7.75894531 323.46371094 -7.51789063 326.92742187 -7.26953125 330.49609375 C-5.18526235 374.09072151 -16.68401559 410.49227136 -31.90936279 450.9821167 C-32.18491343 451.71530656 -32.46046408 452.44849642 -32.74436474 453.20390415 C-33.25865899 454.56684586 -33.77622045 455.92856091 -34.29763508 457.28879452 C-35.58383229 460.55258861 -35.58383229 460.55258861 -36 464 C-31.38 464 -26.76 464 -22 464 C-17.94432996 456.01494026 -13.94582829 448.01206362 -10.2109375 439.87109375 C-9.90013245 439.19387772 -9.58932739 438.51666168 -9.269104 437.81892395 C-7.59336465 434.15017772 -5.94468106 430.47056956 -4.31640625 426.78051758 C-1.13964314 419.62116408 2.05696306 412.70297542 6.1484375 406.015625 C21.25080627 380.03760395 17.2403242 349.02767525 16 320 C8.08 320 0.16 320 -8 320 Z M-110 343 C-110.61875 343.63615234 -110.61875 343.63615234 -111.25 344.28515625 C-114.91217538 348.00455312 -118.68015929 351.5113046 -122.6328125 354.91796875 C-125.63721722 357.56045673 -128.56755324 360.27818255 -131.5 363 C-136.26233689 367.4175088 -141.06952163 371.76961977 -146 376 C-145.36248923 380.1694559 -143.96316369 383.53022171 -142.1484375 387.328125 C-141.85760788 387.94177414 -141.56677826 388.55542328 -141.26713562 389.18766785 C-140.63736687 390.51552574 -140.00519512 391.84224606 -139.37088013 393.16793823 C-137.65839551 396.74818715 -135.96452326 400.33722603 -134.26953125 403.92578125 C-133.91771286 404.6696962 -133.56589447 405.41361115 -133.20341492 406.18006897 C-129.40539103 414.22765881 -125.72946971 422.32957322 -122.0625 430.4375 C-116.15206442 443.49551322 -116.15206442 443.49551322 -110.125 456.5 C-109.80926025 457.17603271 -109.49352051 457.85206543 -109.16821289 458.54858398 C-107.89500346 461.47864718 -107.89500346 461.47864718 -106 464 C-103.64686445 464.07271741 -101.29166332 464.08370868 -98.9375 464.0625 C-97.64714844 464.05347656 -96.35679687 464.04445313 -95.02734375 464.03515625 C-94.02832031 464.02355469 -93.02929688 464.01195312 -92 464 C-94.15801416 455.45394419 -96.9047798 447.13907609 -99.76189232 438.80851555 C-100.83700408 435.66859924 -101.90026803 432.52471011 -102.96439838 429.38105869 C-104.93681474 423.55464071 -106.91399626 417.72994531 -108.91088867 411.91186523 C-110.30857126 407.83814342 -111.69126469 403.75959525 -113.0644474 399.67755318 C-113.5864462 398.13488747 -114.11385442 396.59404026 -114.64699364 395.05518913 C-118.31774745 384.45008979 -121.29381515 375.28205686 -116.77734375 364.40625 C-116.32166016 363.27445312 -115.86597656 362.14265625 -115.39648438 360.9765625 C-114.91501953 359.82929688 -114.43355469 358.68203125 -113.9375 357.5 C-112.98173714 355.17976824 -112.03216299 352.85697409 -111.08984375 350.53125 C-110.66566162 349.51611328 -110.24147949 348.50097656 -109.80444336 347.45507812 C-108.69139342 345.03097633 -108.69139342 345.03097633 -110 343 Z " fill="#f9b81f" transform="translate(248,16)"/>
<path d="M0 0 C5.28 0 10.56 0 16 0 C16 5.28 16 10.56 16 16 C10.72 16 5.44 16 0 16 C0 10.72 0 5.44 0 0 Z " fill="#f9b81f" transform="translate(368,152)"/>
</svg>